<svg
      width="28"
      height="28"
      viewBox="0 0 28 28"
      fill="none"
      xmlns="http://www.w3.org/2000/svg"
    >
      <path
        d="M11.6871 11.6251C11.6869 11.6251 11.6868 11.6251 11.6867 11.6251H9.18671C9.01421 11.625 8.87433 11.7648 8.87421 11.9373C8.87421 11.9374 8.87421 11.9375 8.87421 11.9376V19.4376C8.8741 19.6101 9.01387 19.75 9.18633 19.7501C9.18648 19.7501 9.1866 19.7501 9.18671 19.7501H11.6867C11.8592 19.7503 11.9991 19.6105 11.9992 19.438C11.9992 19.4379 11.9992 19.4378 11.9992 19.4376V11.9376C11.9993 11.7651 11.8596 11.6253 11.6871 11.6251ZM11.3742 19.1251H9.49921V12.2501H11.3742V19.1251ZM18.2492 11.6251C17.5712 11.6252 16.9121 11.8489 16.3742 12.2617V11.9376C16.3743 11.7651 16.2346 11.6253 16.0621 11.6251C16.0619 11.6251 16.0618 11.6251 16.0617 11.6251H13.5617C13.3892 11.625 13.2493 11.7648 13.2492 11.9373C13.2492 11.9374 13.2492 11.9375 13.2492 11.9376V19.4376C13.2491 19.6101 13.3889 19.75 13.5614 19.7501C13.5615 19.7501 13.5616 19.7501 13.5617 19.7501H16.0617C16.2342 19.7503 16.3741 19.6105 16.3742 19.438C16.3742 19.4379 16.3742 19.4378 16.3742 19.4376V16.0001C16.3742 15.4824 16.7939 15.0626 17.3117 15.0626C17.8295 15.0626 18.2492 15.4824 18.2492 16.0001V19.4376C18.2491 19.6101 18.3889 19.75 18.5614 19.7501C18.5615 19.7501 18.5616 19.7501 18.5617 19.7501H21.0617C21.2342 19.7503 21.3741 19.6105 21.3742 19.438C21.3742 19.4379 21.3742 19.4378 21.3742 19.4376V14.7501C21.3722 13.0251 19.9743 11.6272 18.2492 11.6251ZM20.7492 19.1251H18.8742V16.0001C18.8742 15.1372 18.1747 14.4376 17.3117 14.4376C16.4487 14.4376 15.7492 15.1372 15.7492 16.0001V19.1251H13.8742V12.2501H15.7492V13.0021C15.7492 13.1349 15.8332 13.2531 15.9586 13.2969C16.0837 13.342 16.2236 13.3019 16.3059 13.1974C17.1575 12.1182 18.7227 11.9336 19.802 12.7853C20.4031 13.2597 20.7525 13.9843 20.7492 14.7501V19.1251ZM10.6667 7.25129C10.5932 7.24614 10.5194 7.24575 10.4459 7.25014C9.50257 7.18571 8.68565 7.89818 8.62122 8.84148C8.61863 8.87944 8.61733 8.91743 8.61725 8.95546C8.60913 9.89075 9.36074 10.6555 10.296 10.6636C10.3342 10.664 10.3724 10.663 10.4105 10.6607H10.4282C11.3697 10.7266 12.1863 10.0168 12.2522 9.07528C12.318 8.13378 11.6082 7.31717 10.6667 7.25129ZM10.6451 10.0375C10.5729 10.0442 10.5002 10.0436 10.4282 10.0357H10.4105C9.81289 10.0817 9.29127 9.63452 9.24534 9.03695C9.19941 8.43941 9.64657 7.91775 10.2441 7.87182C10.3114 7.86667 10.3789 7.86778 10.4459 7.87514C11.043 7.82013 11.5717 8.25959 11.6267 8.8567C11.6817 9.45385 11.2423 9.98253 10.6451 10.0375Z"
        fill="#f5f5f5"
        stroke="#f5f5f5"
        strokeWidth="0.2"
      />
    </svg>